<svg xmlns="http://www.w3.org/2000/svg" width="65" height="64" fill="none"><g clip-path="url(#a)"><mask id="b" width="65" height="64" x="0" y="0" maskUnits="userSpaceOnUse" style="mask-type:luminance"><path fill="#fff" d="M64.5 0H.5v64h64z"/></mask><g mask="url(#b)"><path fill="#fff" d="M32.5 48c-7.784 0-13.963-5.44-14.221-5.672l1.776-1.99c.056.051 5.698 4.995 12.445 4.995s12.39-4.944 12.445-4.994l1.776 1.989C46.463 42.56 40.284 48 32.5 48m32-16c0-17.645-14.355-32-32-32S.5 14.355.5 32s14.355 32 32 32 32-14.355 32-32m-2.667 0c0 16.173-13.16 29.333-29.333 29.333S3.167 48.173 3.167 32 16.327 2.667 32.5 2.667 61.833 15.827 61.833 32M20.5 18.667c-3.816 0-6.667 5.629-6.667 10.666H16.5c0-3.813 2.093-8 4-8s4 4.187 4 8h2.667c0-5.037-2.851-10.666-6.667-10.666m24 0c-3.816 0-6.667 5.629-6.667 10.666H40.5c0-3.813 2.093-8 4-8s4 4.187 4 8h2.667c0-5.037-2.851-10.666-6.667-10.666"/></g></g><defs><clipPath id="a"><path fill="#fff" d="M0 0h65v64H0z"/></clipPath></defs></svg>