<svg xmlns="http://www.w3.org/2000/svg" width="65" height="64" fill="none"><mask id="a" width="65" height="64" x="0" y="0" maskUnits="userSpaceOnUse" style="mask-type:luminance"><path fill="#fff" d="M64.5 0H.5v64h64z"/></mask><g mask="url(#a)"><path fill="#fff" d="M56.71 3.03C52.97 1.02 49.034 0 45.01 0H19.992c-4.024 0-7.96 1.019-11.701 3.03C3.487 5.61.5 10.72.5 16.362v3.701c0 5.147 4.187 9.333 9.333 9.333h1.334V52c0 6.616 5.384 12 12 12h18.666c6.616 0 12-5.384 12-12V29.333h1.334c5.146 0 9.333-4.186 9.333-9.333v-3.637c0-5.643-2.987-10.752-7.79-13.334m-14.973-.363c-.648 4.517-4.544 8-9.237 8s-8.59-3.483-9.237-8zM61.833 20a6.676 6.676 0 0 1-6.666 6.667h-1.334v-8a1.334 1.334 0 0 0-2.666 0V52c0 5.147-4.187 9.333-9.334 9.333H23.167c-5.147 0-9.334-4.186-9.334-9.333V18.667a1.334 1.334 0 0 0-2.666 0v8.064H9.833a6.676 6.676 0 0 1-6.666-6.667v-3.701c0-4.662 2.445-8.87 6.386-10.984 3.35-1.798 6.862-2.712 10.44-2.712h.582c.666 5.992 5.76 10.666 11.925 10.666S43.761 8.66 44.425 2.667h.582c3.578 0 7.09.912 10.44 2.712 3.938 2.114 6.386 6.325 6.386 10.984z"/></g></svg>