<svg xmlns="http://www.w3.org/2000/svg" width="118" height="100" fill="none"><circle cx="67.5" cy="50" r="46.5" stroke="#E6364F" stroke-width="7"/><path fill="#E6364F" stroke="#E6364F" d="M18.833 43v12.5L2 50z"/><path fill="#E6364F" d="M65.85 70.5q-3.25 0-5.65-1-2.35-1-3.95-2.7a12.7 12.7 0 0 1-2.5-3.65l2.6-1.9q.7 1.45 1.85 2.9t2.9 2.35q1.75.95 4.25.95 2.25 0 3.9-1.05t2.5-3.05q.9-2 .9-4.75 0-2.55-.85-4.3-.8-1.75-2.25-2.65-1.4-.95-3.3-.95-1.5 0-2.75.45-1.25.4-2.3 1.25-1 .8-1.85 2H56.6V35.55h19.85l-1.05 4.7H58.7l1.1-3.7V52.2a.62.62 0 0 1-.35.5.54.54 0 0 1-.5.05q-.2-.1-.3-.5a9.5 9.5 0 0 1 2.2-2.4q1.35-1.05 3.05-1.6t3.75-.55q3.4 0 5.85 1.5 2.5 1.5 3.8 4 1.35 2.45 1.35 5.4 0 3.55-1.6 6.25-1.6 2.65-4.5 4.15-2.85 1.5-6.7 1.5"/></svg>