<svg xmlns="http://www.w3.org/2000/svg" width="118" height="100" fill="none"><circle cx="50" cy="50" r="46.5" stroke="#98A0EF" stroke-width="7"/><path fill="#98A0EF" stroke="#98A0EF" d="M99.167 58V45.5L116 51z"/><path fill="#98A0EF" d="M51.4 61.55q2 0 3.25-.15 1.3-.2 1.9-.65.6-.5.7-1.4l.5-3.6h2.9V66H37v-4.85A287 287 0 0 0 42.1 58a56 56 0 0 0 4.5-3.15 29 29 0 0 0 3.6-3.3q1.55-1.75 2.4-3.65.9-1.95.9-4.15 0-2.05-.65-3.3T51 38.6q-1.15-.6-2.85-.6t-3.1.55q-1.35.55-2.4 1.45t-1.75 2q.05-.55.2-1.05.15-.55.4-1t.6-.75a1.5 1.5 0 0 1 .85-.35v5.7h-5.2V39.6q.85-1.05 2.4-2.1 1.6-1.05 3.7-1.7 2.15-.7 4.7-.7 3.45 0 5.9 1t3.75 2.95 1.3 4.85q0 2.3-1.2 4.5-1.2 2.15-3.25 4.15a39 39 0 0 1-4.65 3.85 74 74 0 0 1-5.5 3.45 242 242 0 0 1-5.6 3.05q-.15-.1-.15-.35t.05-.55q.1-.3.2-.45z"/></svg>