<svg xmlns="http://www.w3.org/2000/svg" width="118" height="100" fill="none"><circle cx="67.5" cy="50" r="46.5" stroke="#FF746C" stroke-width="7"/><path fill="#FF746C" stroke="#FF746C" d="M18.833 43v12.5L2 50z"/><path fill="#FF746C" d="M70.85 61.65q0 .75.7 1.2.7.4 2 .55a27 27 0 0 0 3.05.15h1.75V66H57.1v-2.45h2.25q1.7 0 2.9-.15t1.85-.55q.65-.45.65-1.2V39.2l.85-.55q-.4 1.05-1.3 1.9-.85.8-2.1 1.4a13 13 0 0 1-2.8.85q-1.55.3-3.2.3v-3.65a36 36 0 0 0 3.5-.25q1.6-.25 2.85-.75 1.3-.5 2.25-1.2a6.2 6.2 0 0 0 1.65-1.7h4.4z"/></svg>