<svg xmlns="http://www.w3.org/2000/svg" width="118" height="100" fill="none"><circle cx="67.5" cy="50" r="46.5" stroke="#FFC669" stroke-width="7"/><path fill="#FFC669" stroke="#FFC669" d="M18.833 43v12.5L2 50z"/><path fill="#FFC669" d="M65.45 51.4q3.7 0 6.25.7 2.55.65 4.1 1.9 1.55 1.2 2.25 2.85.7 1.6.7 3.55 0 3.05-1.65 5.35-1.6 2.25-4.45 3.5-2.8 1.25-6.45 1.25-3.4 0-5.9-1.05-2.45-1.05-4.15-2.9a13.8 13.8 0 0 1-2.6-4.1l2.7-1.85q.5 1.25 1.25 2.45.8 1.2 1.95 2.25a9 9 0 0 0 2.7 1.6q1.55.6 3.55.6 2.2 0 3.75-.85a5.8 5.8 0 0 0 2.45-2.45q.85-1.6.85-3.9 0-2.15-.8-3.7-.75-1.6-2.55-2.45-1.75-.9-4.75-.9h-3.3V50.4h2.75q2.45 0 4.1-.7 1.7-.75 2.6-2.2.9-1.5.9-3.7 0-2-.75-3.25-.75-1.3-2.05-1.9-1.25-.6-2.95-.6-2.55 0-4.25 1.1-1.7 1.05-2.7 2.6.05-.55.2-1.05.15-.55.35-.95.25-.45.6-.7.35-.3.8-.35v5.65h-5.2V39.5q.8-1.05 2.3-2.05 1.55-1 3.65-1.65 2.15-.7 4.7-.7 3.15 0 5.65 1 2.55.95 4 2.8 1.45 1.8 1.45 4.4 0 2.65-1.75 4.6-1.7 1.95-4.65 3-2.9 1.05-6.55 1.05l2.25-1v1.4z"/></svg>