<svg xmlns="http://www.w3.org/2000/svg" width="118" height="100" fill="none"><circle cx="50" cy="50" r="46.5" stroke="#96D7A5" stroke-width="7"/><path fill="#96D7A5" stroke="#96D7A5" d="M99.167 58V45.5L116 51z"/><path fill="#96D7A5" d="M49 63.5q1.45 0 2.55-.5a5.25 5.25 0 0 0 1.95-1.45q.85-.95 1.25-2.3.45-1.4.45-3.15 0-2.5-.75-4.15T52.3 49.5q-1.4-.85-3.3-.85t-3.3.85q-1.4.8-2.15 2.45t-.75 4.15q0 1.75.4 3.15.45 1.35 1.25 2.3a5.7 5.7 0 0 0 2 1.45q1.15.5 2.55.5m0-17.75q1.55 0 2.65-.7 1.1-.75 1.7-2.15.6-1.45.6-3.5 0-2.1-.6-3.5t-1.7-2.15T49 33q-1.5 0-2.65.75-1.1.75-1.7 2.15t-.6 3.5q0 2.05.6 3.5.6 1.4 1.7 2.15 1.15.7 2.65.7M49 30q3.15 0 5.55 1.15 2.4 1.1 3.75 3.15 1.35 2 1.35 4.6 0 2.25-.95 4-.9 1.75-2.65 2.9T52 47.4l.7-.9v1.25L52 46.7q2.75.45 4.9 1.75 2.15 1.25 3.35 3.25t1.2 4.6q0 3-1.6 5.3-1.55 2.3-4.35 3.6T49 66.5q-3.65 0-6.5-1.3-2.8-1.3-4.4-3.6-1.55-2.3-1.55-5.3 0-2.6 1.2-4.6 1.25-2 3.35-3.25 2.15-1.3 4.9-1.75l-.7 1.05V46.5l.7.9q-2.3-.45-4.05-1.6t-2.7-2.9q-.9-1.75-.9-4 0-2.6 1.35-4.6 1.35-2.05 3.75-3.15Q45.85 30 49 30"/></svg>