<svg xmlns="http://www.w3.org/2000/svg" width="118" height="100" fill="none"><circle cx="50" cy="50" r="46.5" stroke="#8BCDE8" stroke-width="7"/><path fill="#8BCDE8" stroke="#8BCDE8" d="M99.167 58V45.5L116 51z"/><path fill="#8BCDE8" d="M57.8 31.85q-3.4.65-6.2 2.3a18 18 0 0 0-4.8 4.2q-2 2.55-3.1 5.85-1.05 3.3-1.05 7.15 0 3.35.45 5.7.5 2.3 1.4 3.75t2.15 2.1q1.3.65 2.75.65 1.85 0 3.15-1.05 1.3-1.1 2-3.15t.7-4.8q0-2.5-.6-4.35-.55-1.85-1.75-2.85-1.15-1.05-3-1.05-1.4 0-2.6.55-1.2.5-2.25 1.4-1 .9-1.85 2.15a19 19 0 0 0-1.5 2.65l-.45-2.5q.5-1.3 1.35-2.55.9-1.3 2.15-2.35A9.7 9.7 0 0 1 47.6 44q1.6-.65 3.55-.65 2.95 0 5.25 1.35 2.3 1.3 3.6 3.8 1.35 2.45 1.35 5.95 0 3.55-1.55 6.3-1.5 2.7-4.2 4.25-2.65 1.5-6.1 1.5-3.7 0-6.6-1.65-2.9-1.7-4.6-5.1-1.65-3.4-1.65-8.5 0-4.1 1.45-7.75 1.5-3.7 4.25-6.7t6.55-5.05T57.35 29z"/></svg>