<svg xmlns="http://www.w3.org/2000/svg" width="65" height="64" fill="none"><g clip-path="url(#a)"><mask id="b" width="65" height="64" x="0" y="0" maskUnits="userSpaceOnUse" style="mask-type:luminance"><path fill="#fff" d="M64.5 0H.5v64h64z"/></mask><g mask="url(#b)"><path fill="#fff" d="M32.5 64c-4.33 0-8.387-2.013-11.008-5.427A13.874 13.874 0 0 1 5.927 43.008 13.87 13.87 0 0 1 .503 32a13.87 13.87 0 0 1 5.424-11.008A13.87 13.87 0 0 1 9.873 9.373a13.84 13.84 0 0 1 11.619-3.946A13.87 13.87 0 0 1 32.5 0c4.33 0 8.387 2.013 11.008 5.427a13.85 13.85 0 0 1 11.619 3.946 13.87 13.87 0 0 1 3.946 11.619A13.87 13.87 0 0 1 64.497 32a13.87 13.87 0 0 1-5.424 11.008 13.875 13.875 0 0 1-15.565 15.565A13.87 13.87 0 0 1 32.5 64m-9.797-8.352.493.73a11.21 11.21 0 0 0 9.304 4.953c3.733 0 7.21-1.851 9.304-4.952l.493-.731.867.168a11.22 11.22 0 0 0 10.077-3.075 11.2 11.2 0 0 0 3.075-10.08l-.165-.866.73-.494A11.21 11.21 0 0 0 61.831 32c0-3.733-1.851-7.21-4.95-9.301l-.73-.494.165-.866A11.21 11.21 0 0 0 43.164 8.184l-.867.168-.493-.73A11.21 11.21 0 0 0 32.5 2.668c-3.733 0-7.21 1.851-9.304 4.952l-.493.731-.867-.168A11.21 11.21 0 0 0 8.684 21.339l.165.866-.73.494A11.21 11.21 0 0 0 3.169 32c0 3.733 1.851 7.21 4.95 9.301l.73.494-.165.866a11.2 11.2 0 0 0 3.075 10.08 11.22 11.22 0 0 0 10.077 3.075zm8.616-16.813 15.448-15.219-1.87-1.899-15.456 15.224c-.517.52-1.362.52-1.901-.013l-7.448-7.219-1.853 1.915 7.432 7.205A4 4 0 0 0 28.503 40a3.96 3.96 0 0 0 2.816-1.165"/></g></g><defs><clipPath id="a"><path fill="#fff" d="M0 0h65v64H0z"/></clipPath></defs></svg>