<svg xmlns="http://www.w3.org/2000/svg" width="23" height="23" fill="none"><path fill="#450505" fill-rule="evenodd" d="M11.458 17.708a6.25 6.25 0 1 0 0-12.5 6.25 6.25 0 0 0 0 12.5m0-2.083a4.167 4.167 0 1 0 0-8.333 4.167 4.167 0 0 0 0 8.333" clip-rule="evenodd"/><path fill="#450505" fill-rule="evenodd" d="M.681 3.413C0 4.75 0 6.5 0 10v2.917c0 3.5 0 5.25.681 6.587a6.25 6.25 0 0 0 2.732 2.731c1.337.682 3.087.682 6.587.682h2.917c3.5 0 5.25 0 6.587-.682a6.25 6.25 0 0 0 2.731-2.73c.682-1.338.682-3.088.682-6.588V10c0-3.5 0-5.25-.682-6.587A6.25 6.25 0 0 0 19.505.68C18.166 0 16.416 0 12.916 0H10C6.5 0 4.75 0 3.413.681A6.25 6.25 0 0 0 .68 3.413m12.236-1.33H10c-1.785 0-2.998.002-3.935.079-.914.074-1.38.21-1.707.375a4.17 4.17 0 0 0-1.82 1.821c-.167.326-.302.793-.376 1.707-.077.937-.079 2.15-.079 3.935v2.917c0 1.784.002 2.997.079 3.935.074.913.21 1.38.375 1.706a4.17 4.17 0 0 0 1.821 1.821c.326.166.793.301 1.707.376.937.077 2.15.078 3.935.078h2.917c1.784 0 2.997-.001 3.935-.078.913-.075 1.38-.21 1.706-.376a4.17 4.17 0 0 0 1.821-1.82c.166-.326.301-.794.376-1.707.077-.938.078-2.15.078-3.935V10c0-1.785-.001-2.998-.078-3.935-.075-.914-.21-1.38-.376-1.707a4.17 4.17 0 0 0-1.82-1.82c-.326-.167-.794-.302-1.707-.376-.938-.077-2.15-.079-3.935-.079" clip-rule="evenodd"/><path fill="#450505" d="M11.542 10.5a1.042 1.042 0 1 0 0 2.083 1.042 1.042 0 0 0 0-2.083"/></svg>