<svg width="26" height="26" viewBox="0 0 26 26" fill="none" xmlns="http://www.w3.org/2000/svg">
<path d="M12.885 0C7.03014 0.0159536 2.27003 4.68096 2.27003 10.4155C2.27003 13.7787 6.21188 18.4083 6.66154 18.9252C7.53909 19.9346 7.68393 20.1593 7.9662 20.5971L7.97098 20.6046L7.98216 20.6219C8.36652 21.2181 8.95528 22.1315 11.368 25.2112C11.7644 25.6998 12.3075 25.9693 12.885 25.9832C13.4625 25.9693 14.0056 25.6997 14.4021 25.2112C16.8132 22.1335 17.4026 21.2193 17.7872 20.623L17.799 20.6046L17.8047 20.5958C18.0864 20.1589 18.2318 19.9336 19.1085 18.9252C19.5582 18.4083 23.5 13.7787 23.5 10.4155C23.5 4.68096 18.7398 0.0159536 12.885 0ZM17.8442 17.874C16.8859 18.9768 16.7111 19.2468 16.3942 19.7383C16.048 20.2753 15.468 21.173 13.0861 24.2138C13.0233 24.2914 12.9533 24.3141 12.885 24.3342C12.8166 24.3142 12.7465 24.2915 12.6838 24.2138C10.302 21.173 9.72204 20.2753 9.37584 19.7383C9.05895 19.2468 8.88398 18.9769 7.92572 17.874C5.9998 15.6604 3.92786 12.3828 3.92786 10.4155C3.92786 5.57473 7.94344 1.6372 12.8849 1.62129C17.8263 1.6372 21.8419 5.57473 21.8419 10.4155C21.842 12.3828 19.77 15.6604 17.8442 17.874ZM12.885 6.27003C10.642 6.27003 8.5 8.25709 8.5 10.5C8.5 12.7431 10.642 14.8432 12.885 14.8432C15.128 14.8432 17.3743 12.7431 17.3743 10.5C17.3743 8.25703 15.128 6.27003 12.885 6.27003ZM12.885 12.9953C11.539 12.9953 10.4482 11.9042 10.4482 10.5584C10.4482 9.21273 11.539 8.12164 12.885 8.12164C14.2308 8.12164 15.3218 9.21273 15.3218 10.5584C15.3218 11.9042 14.2308 12.9953 12.885 12.9953Z" fill="#58B958"/>
<path d="M12.885 0C7.03014 0.0159536 2.27003 4.68096 2.27003 10.4155C2.27003 13.7787 6.21188 18.4083 6.66154 18.9252C7.53909 19.9346 7.68393 20.1593 7.9662 20.5971L7.97098 20.6046L7.98216 20.6219C8.36652 21.2181 8.95528 22.1315 11.368 25.2112C11.7644 25.6998 12.3075 25.9693 12.885 25.9832C13.4625 25.9693 14.0056 25.6997 14.4021 25.2112C16.8132 22.1335 17.4026 21.2193 17.7872 20.623L17.799 20.6046L17.8047 20.5958C18.0864 20.1589 18.2318 19.9336 19.1085 18.9252C19.5582 18.4083 23.5 13.7787 23.5 10.4155C23.5 4.68096 18.7398 0.0159536 12.885 0ZM17.8442 17.874C16.8859 18.9768 16.7111 19.2468 16.3942 19.7383C16.048 20.2753 15.468 21.173 13.0861 24.2138C13.0233 24.2914 12.9533 24.3141 12.885 24.3342C12.8166 24.3142 12.7465 24.2915 12.6838 24.2138C10.302 21.173 9.72204 20.2753 9.37584 19.7383C9.05895 19.2468 8.88398 18.9769 7.92572 17.874C5.9998 15.6604 3.92786 12.3828 3.92786 10.4155C3.92786 5.57473 7.94344 1.6372 12.8849 1.62129C17.8263 1.6372 21.8419 5.57473 21.8419 10.4155C21.842 12.3828 19.77 15.6604 17.8442 17.874ZM12.885 6.27003C10.642 6.27003 8.5 8.25709 8.5 10.5C8.5 12.7431 10.642 14.8432 12.885 14.8432C15.128 14.8432 17.3743 12.7431 17.3743 10.5C17.3743 8.25703 15.128 6.27003 12.885 6.27003ZM12.885 12.9953C11.539 12.9953 10.4482 11.9042 10.4482 10.5584C10.4482 9.21273 11.539 8.12164 12.885 8.12164C14.2308 8.12164 15.3218 9.21273 15.3218 10.5584C15.3218 11.9042 14.2308 12.9953 12.885 12.9953Z" stroke="#58B958"/>
</svg>
