<svg xmlns="http://www.w3.org/2000/svg" width="26" height="26" fill="none"><path fill="#fff" d="M12.885 0C7.03.016 2.27 4.681 2.27 10.416c0 3.363 3.942 7.992 4.392 8.51.877 1.009 1.022 1.233 1.304 1.671l.005.008.011.017c.384.596.973 1.51 3.386 4.59.396.488.94.757 1.517.771.577-.014 1.12-.283 1.517-.772 2.411-3.077 3-3.992 3.385-4.588l.012-.018.006-.01c.281-.436.427-.661 1.303-1.67.45-.517 4.392-5.146 4.392-8.51C23.5 4.682 18.74.017 12.885 0m4.96 17.874c-.96 1.103-1.134 1.373-1.45 1.864-.347.537-.927 1.435-3.309 4.476a.36.36 0 0 1-.201.12.36.36 0 0 1-.201-.12c-2.382-3.041-2.962-3.939-3.308-4.476-.317-.491-.492-.761-1.45-1.864C6 15.66 3.928 12.383 3.928 10.416c0-4.841 4.015-8.779 8.957-8.795 4.941.016 8.957 3.954 8.957 8.795 0 1.967-2.072 5.244-3.998 7.458M12.884 6.27C10.642 6.27 8.5 8.257 8.5 10.5s2.142 4.343 4.385 4.343 4.49-2.1 4.49-4.343-2.247-4.23-4.49-4.23m0 6.725a2.437 2.437 0 1 1 0-4.873 2.437 2.437 0 0 1 0 4.873"/><path stroke="#fff" d="M12.885 0C7.03.016 2.27 4.681 2.27 10.416c0 3.363 3.942 7.992 4.392 8.51.877 1.009 1.022 1.233 1.304 1.671l.005.008.011.017c.384.596.973 1.51 3.386 4.59.396.488.94.757 1.517.771.577-.014 1.12-.283 1.517-.772 2.411-3.077 3-3.992 3.385-4.588l.012-.018.006-.01c.281-.436.427-.661 1.303-1.67.45-.517 4.392-5.146 4.392-8.51C23.5 4.682 18.74.017 12.885 0Zm4.96 17.874c-.96 1.103-1.134 1.373-1.45 1.864-.347.537-.927 1.435-3.309 4.476a.36.36 0 0 1-.201.12.36.36 0 0 1-.201-.12c-2.382-3.041-2.962-3.939-3.308-4.476-.317-.491-.492-.761-1.45-1.864C6 15.66 3.928 12.383 3.928 10.416c0-4.841 4.015-8.779 8.957-8.795 4.941.016 8.957 3.954 8.957 8.795 0 1.967-2.072 5.244-3.998 7.458ZM12.884 6.27C10.642 6.27 8.5 8.257 8.5 10.5s2.142 4.343 4.385 4.343 4.49-2.1 4.49-4.343-2.247-4.23-4.49-4.23Zm0 6.725a2.437 2.437 0 1 1 0-4.873 2.437 2.437 0 0 1 0 4.873Z"/></svg>