<svg xmlns="http://www.w3.org/2000/svg" width="60" height="60" fill="none"><rect width="60" height="60" fill="#450505" rx="30"/><path fill="#fff" fill-rule="evenodd" d="m20.49 30.41.979.027.02-12.135c.325.12.889.757 1.09.988l7.558 7.393c.31-.165 3.055-2.922 3.553-3.381.641-.592.473-.61.457-1.772-.139.055-1.79 1.635-1.98 1.815-.518.49-1.577 1.67-2.03 1.93-.41-.236-4.117-4.04-4.797-4.692-.836-.803-1.598-1.549-2.435-2.357-.227-.22-2.132-2.207-2.404-2.322zM24.761 42.895l1.005-.02-.002-8.8c1.674-.003 4.711-.5 4.786 2.07.094 3.22-3.581 1.616-3.962 2.817.982-.072.965-1.283 2.54 1.607 1.34 2.463.814 2.409 2.483 2.311-.527-.726-.785-1.206-1.262-2.153-.387-.769-.735-1.514-1.32-2.091l.125-.068c.015-.006.047-.022.066-.028l.07-.023c.074-.02.273-.048.377-.071.65-.143 1.242-.468 1.574-1.01.537-.876.398-2.048-.214-2.73-.672-.748-1.419-.832-2.732-.829q-1.766.004-3.53-.003zM22.383 41.327l.024 1.55 1.008.016-.01-9.01-.973-.008c-.18 1.395-.028 3.984-.028 5.498 0 1.18.164 1.536-.61 2.16-.446.36-1.261.76-1.932.913-3.747.854-2.042-3.769-2.49-8.557l-.942-.016c-.168.98-.127 7.396.209 8.035.747 1.423 3.107 1.132 4.544.306.557-.32.81-.647 1.2-.887M38.245 34.34c.195.238.81 1.7.988 2.109.793 1.83 1.764 3.057.789 4.424-1.753 2.457-5.092.923-3.685-2.4.292-.69.704-1.335 1.042-1.993.525-1.02.772-1.97.866-2.14m2.442 5.358 1.434 3.181 1.088.011-4.017-9.013h-1.093c-.47 1.792-.702 2.2-1.57 3.502-.572.858-1.588 2.366-1.264 3.781.312 1.363 1.714 2.088 3.32 1.592 1.46-.45 1.739-1.463 2.102-3.054M8 42.893l1.005.007c-.202-2.084-1.077-6.749-.778-8.752l.95.943c1.512 1.5 3.346 3.449 4.496 5.174.255.382.5.752.72 1.21.319.658.388 1.225.542 1.41.119-.227.076-.13.089-.466l-.034-8.531-.944-.011c-.02.37.599 4.481.672 5.924-.246-.147-1.237-1.439-1.488-1.764l-2.994-3.27c-.864-.894-.528-.886-2.205-.896zM44.21 34.868c1.933-.239 2.658-.742 5.413-.78-.271.483-2.542 2.877-3.291 3.881-.891 1.194-2.21 2.909-2.236 4.93l6.859-.003v-.966c-1.558.123-2.797.753-5.728.784.084-1.742 1.675-3.905 2.48-4.842l2.543-2.987c.291-.367.59-.6.784-1.011h-6.778z" clip-rule="evenodd"/><path fill="#fff" fill-rule="evenodd" d="m35.514 26.689-1.667-1.699c-.34.143-.574.451-.766.624.197.456 1.068 1.208 1.656 1.784l1.76 1.747.024-14.004-1.002.01zM37.457 19.443c.469-.206.84-.97 1.316-1.143l.012 12.131.992-.004.007-14.528c-.292.123-1.243 1.185-1.48 1.42-.892.886-.862.413-.848 2.124M30.543 44.096c.229.724 1.643 1.233 2.57.651.896-.561.713-1.967.713-3.163 0-1.218.075-7.006-.033-7.705h-.94c-.186 1.833.201 9.049-.168 10.068-.157.433-.433.67-.98.662-.81-.01-.711-.492-1.162-.513M30.024 22.683c.34-.144.614-.422.771-.751-.58-.494-1.132-1.132-1.706-1.69-.54-.523-4.942-5.008-5.341-5.242.01 1.875.044 1.407 1.059 2.431.546.55 1.096 1.126 1.726 1.775zM23.747 28.741l1.009.006c.002-.584.088-5.02-.057-5.377-.068-.167-.761-.818-.92-.942z" clip-rule="evenodd"/></svg>