<svg xmlns="http://www.w3.org/2000/svg" width="22" height="22" fill="none"><path fill="#450505" d="M17.097 10.285a.716.716 0 1 0 1.416-.22 7.235 7.235 0 0 0-6.557-6.49.718.718 0 1 0-.057 1.433c.044.002 4.424.233 5.198 5.276m1.599-6.842C13.819-1.436 9.366.276 9.18.352a.718.718 0 0 0 .533 1.33c.037-.014 3.754-1.442 7.969 2.776 3.883 3.884 2.743 7.828 2.695 7.991a.717.717 0 0 0 1.366.43c.062-.2 1.472-4.915-3.048-9.436m-1.678 16.893c-.068.069-.293.23-.9.23-1.97 0-5.744-1.657-9.378-5.293C1.97 10.498.887 5.783 1.683 4.987c.514-.517 1.585-1.59 2.599-1.59.56 0 1.091.324 1.622.988 1.533 1.91.87 2.565-.23 3.652l-.204.202c-.275.275-.423.64-.423 1.052 0 .66.318 1.852 3.07 4.605 2.752 2.752 3.944 3.07 4.602 3.07.412 0 .774-.144 1.049-.42l.202-.203c.598-.608 1.115-1.132 1.768-1.132.508 0 1.142.303 1.884.9.631.509.953 1.015.98 1.545.058 1.04-1.05 2.148-1.584 2.682zm-1.278-6.559c-1.254 0-2.07.828-2.79 1.558l-.231.197c-.22 0-1.13-.191-3.59-2.651C6.26 10.01 6.484 9.254 6.484 9.254l.197-.197c1.133-1.118 2.684-2.65.343-5.57-.81-1.01-1.732-1.524-2.741-1.524-1.606 0-2.913 1.306-3.613 2.008-2.072 2.076.962 8.214 5.06 12.317C9.67 20.235 13.785 22 16.117 22c.84 0 1.485-.22 1.914-.649.679-.68 2.093-2.094 2.002-3.772-.051-.948-.561-1.819-1.515-2.586-1.018-.818-1.928-1.216-2.78-1.216"/></svg>