<svg width="22" height="22" viewBox="0 0 22 22" fill="none" xmlns="http://www.w3.org/2000/svg">
<path d="M17.0968 10.2848C17.1259 10.4726 17.2285 10.6412 17.382 10.7533C17.5354 10.8655 17.7271 10.9121 17.9149 10.883C18.1027 10.8538 18.2712 10.7512 18.3834 10.5978C18.4956 10.4444 18.5422 10.2526 18.513 10.0648C18.3462 8.38894 17.6 6.82374 16.403 5.63902C15.2059 4.45429 13.6331 3.72426 11.9556 3.57475C11.8588 3.56629 11.7613 3.57757 11.669 3.6079C11.5767 3.63823 11.4916 3.68697 11.4187 3.75119C11.3458 3.8154 11.2867 3.89375 11.2449 3.98148C11.2032 4.0692 11.1797 4.16449 11.1759 4.26156C11.1721 4.35863 11.188 4.45547 11.2227 4.54621C11.2574 4.63694 11.3102 4.71969 11.3778 4.78943C11.4454 4.85918 11.5265 4.91447 11.6161 4.95195C11.7058 4.98944 11.8021 5.00834 11.8992 5.00752C11.9432 5.01027 16.3226 5.24127 17.0968 10.2835V10.2848ZM18.6959 3.44274C13.8187 -1.43582 9.36642 0.276076 9.18079 0.351702C9.01286 0.428282 8.88088 0.566611 8.81227 0.737955C8.74366 0.909299 8.74369 1.10049 8.81236 1.27181C8.88103 1.44313 9.01306 1.58141 9.18102 1.65793C9.34898 1.73445 9.53996 1.74333 9.7143 1.68272C9.75142 1.6676 13.4681 0.240326 17.6825 4.45751C21.5656 8.34194 20.4257 12.2855 20.3776 12.4491C20.3343 12.6262 20.3601 12.8132 20.4497 12.972C20.5393 13.1308 20.6859 13.2496 20.8599 13.3042C21.0339 13.3588 21.2221 13.3451 21.3863 13.266C21.5506 13.1869 21.6786 13.0482 21.7443 12.8781C21.8062 12.6787 23.2156 7.96381 18.6959 3.44274ZM17.0184 20.3362C16.9496 20.405 16.7255 20.5659 16.1178 20.5659C14.1487 20.5659 10.3743 18.909 6.74013 15.2734C1.97019 10.498 0.886675 5.78303 1.68281 4.98689C2.19707 4.46988 3.26821 3.39737 4.2816 3.39737C4.84123 3.39737 5.37336 3.7205 5.90412 4.38463C7.43727 6.29591 6.77313 6.95042 5.67312 8.03668L5.46961 8.23881C5.19461 8.51381 5.04748 8.87819 5.04748 9.2907C5.04748 9.95071 5.36511 11.1429 8.11652 13.8956C10.8693 16.6484 12.0615 16.9661 12.7187 16.9661C13.1312 16.9661 13.4928 16.8217 13.7679 16.5467L13.97 16.3432C14.5681 15.7354 15.0851 15.2115 15.7383 15.2115C16.2456 15.2115 16.8795 15.514 17.622 16.1108C18.2532 16.6196 18.5749 17.1256 18.6024 17.6563C18.6602 18.6958 17.5519 19.8041 17.0184 20.3376V20.3362ZM15.7396 13.7774C14.4856 13.7774 13.6702 14.6051 12.9497 15.3353L12.7187 15.5319C12.4987 15.5319 11.5898 15.3408 9.12991 12.8809C6.26025 10.0098 6.483 9.25357 6.483 9.25357L6.67963 9.05695C7.81265 7.93906 9.36367 6.40729 7.02338 3.48675C6.21212 2.47611 5.29086 1.96322 4.2816 1.96322C2.67557 1.96322 1.36931 3.26949 0.669422 3.97075C-1.40273 6.04703 1.63056 12.1851 5.72812 16.2882C9.6703 20.2345 13.7857 22 16.1178 22C16.9579 22 17.6028 21.78 18.0318 21.351C18.711 20.6717 20.1246 19.2568 20.0338 17.5793C19.9829 16.6306 19.4728 15.7602 18.5185 14.9929C17.501 14.1748 16.5908 13.7774 15.7383 13.7774H15.7396Z" fill="#58B958"/>
</svg>
