<svg xmlns="http://www.w3.org/2000/svg" width="22" height="22" fill="none"><g clip-path="url(#a)"><path fill="#450505" d="M.052 22 1.6 16.35A10.9 10.9 0 0 1 .144 10.9C.147 4.89 5.037 0 11.046 0c2.916 0 5.653 1.137 7.712 3.197a10.84 10.84 0 0 1 3.19 7.713c-.003 6.01-4.893 10.901-10.902 10.901-1.824 0-3.622-.458-5.214-1.327zM6.1 18.51c1.536.912 3.002 1.459 4.942 1.46 4.994 0 9.062-4.065 9.065-9.062a9.06 9.06 0 0 0-9.057-9.067c-4.998 0-9.064 4.064-9.065 9.06-.001 2.04.596 3.567 1.6 5.165L2.67 19.41zm10.438-5.008c-.068-.114-.25-.182-.523-.319-.272-.136-1.611-.795-1.862-.886-.249-.09-.43-.136-.613.137-.181.272-.704.886-.862 1.068-.16.181-.319.204-.59.067-.273-.136-1.151-.423-2.192-1.352-.81-.722-1.356-1.614-1.515-1.887s-.016-.42.12-.556c.122-.121.272-.318.408-.477.138-.158.183-.272.275-.454.09-.181.046-.34-.023-.477s-.613-1.477-.84-2.023c-.221-.53-.446-.459-.613-.467l-.522-.01a1 1 0 0 0-.726.342c-.25.273-.954.931-.954 2.272s.977 2.636 1.112 2.818c.137.181 1.92 2.933 4.653 4.113.65.28 1.158.448 1.553.574.653.207 1.247.178 1.716.108.524-.078 1.612-.66 1.839-1.295.227-.637.227-1.183.159-1.296"/></g><defs><clipPath id="a"><path fill="#fff" d="M0 0h22v22H0z"/></clipPath></defs></svg>